<svg width="22" height="22" viewBox="0 0 22 22" fill="none" xmlns="http://www.w3.org/2000/svg">
<path fill-rule="evenodd" clip-rule="evenodd" d="M8.49928 1.97858e-08C7.14387 0.00011921 5.80814 0.334807 4.60353 0.97614C3.39893 1.61747 2.36037 2.54685 1.57451 3.68674C0.788656 4.82663 0.278287 6.14398 0.0859852 7.52887C-0.106316 8.91376 0.0250263 10.326 0.469055 11.6479C0.913084 12.9697 1.65692 14.1628 2.63851 15.1276C3.6201 16.0923 4.81098 16.8008 6.11179 17.1939C7.4126 17.587 8.78562 17.6533 10.1163 17.3872C11.447 17.1212 12.6967 16.5306 13.7613 15.6646L17.4133 19.4342C17.6019 19.6222 17.8545 19.7262 18.1167 19.7239C18.3789 19.7215 18.6297 19.613 18.8151 19.4216C19.0005 19.2302 19.1057 18.9713 19.108 18.7007C19.1102 18.43 19.0094 18.1693 18.8273 17.9746L15.1753 14.2051C16.1633 12.9113 16.7784 11.3566 16.9504 9.71886C17.1223 8.0811 16.8441 6.42646 16.1475 4.94431C15.4509 3.46215 14.3642 2.21236 13.0116 1.33796C11.659 0.463565 10.0952 -0.000110593 8.49928 1.97858e-08ZM1.99928 8.77365C1.99928 6.99425 2.6841 5.28772 3.90308 4.02949C5.12207 2.77126 6.77537 2.06439 8.49928 2.06439C10.2232 2.06439 11.8765 2.77126 13.0955 4.02949C14.3145 5.28772 14.9993 6.99425 14.9993 8.77365C14.9993 10.5531 14.3145 12.2596 13.0955 13.5178C11.8765 14.7761 10.2232 15.4829 8.49928 15.4829C6.77537 15.4829 5.12207 14.7761 3.90308 13.5178C2.6841 12.2596 1.99928 10.5531 1.99928 8.77365Z" fill="black" fill-opacity="0.64"/>
<path d="M15.4936 20.9545C15.178 20.685 15 20.3148 15 19.9276L15 17.5962C15 16.4801 16.1094 15.6103 17.3728 15.7359L19.4402 15.9415C19.8214 15.9794 20.1772 16.1272 20.4518 16.3617C21.1378 16.9474 21.1508 17.9119 20.4808 18.5159L17.8104 20.9233C17.1782 21.4933 16.1409 21.5073 15.4936 20.9545Z" fill="#555555"/>
<path d="M14 9.82558C14 10.4593 13.8577 11.0868 13.5813 11.6723C13.3049 12.2577 12.8998 12.7897 12.3891 13.2378C11.8784 13.6859 11.272 14.0413 10.6048 14.2838C9.93747 14.5263 9.22227 14.6512 8.5 14.6512C7.77773 14.6512 7.06253 14.5263 6.39524 14.2838C5.72795 14.0413 5.12163 13.6859 4.61091 13.2378C4.10019 12.7897 3.69506 12.2577 3.41866 11.6722C3.14226 11.0868 3 10.4593 3 9.82558H4.31146C4.31146 10.3082 4.4198 10.7861 4.6303 11.2319C4.84079 11.6778 5.14931 12.0829 5.53826 12.4241C5.9272 12.7654 6.38894 13.0361 6.89712 13.2208C7.40529 13.4055 7.94995 13.5005 8.5 13.5005C9.05005 13.5005 9.59471 13.4055 10.1029 13.2208C10.6111 13.0361 11.0728 12.7654 11.4617 12.4242C11.8507 12.0829 12.1592 11.6778 12.3697 11.2319C12.5802 10.7861 12.6885 10.3082 12.6885 9.82558H14Z" fill="black" fill-opacity="0.64"/>
</svg>
