<svg width="16" height="29" viewBox="0 0 16 29" fill="none" xmlns="http://www.w3.org/2000/svg">
<circle cx="8" cy="7" r="6" stroke="black" stroke-width="2"/>
<path d="M15.0495 21C15.5744 21 16.0058 20.5729 15.9436 20.0517C15.7321 18.2793 14.9319 16.6182 13.6569 15.3431C12.1566 13.8429 10.1217 13 8 13C5.87827 13 3.84344 13.8429 2.34315 15.3431C1.06813 16.6182 0.267933 18.2793 0.0563796 20.0517C-0.00583834 20.5729 0.425567 21 0.950529 21C1.47549 21 1.89347 20.5719 1.97496 20.0533C2.17402 18.7864 2.76921 17.6056 3.6874 16.6874C4.83117 15.5436 6.38246 14.9011 8 14.9011C9.61754 14.9011 11.1688 15.5436 12.3126 16.6874C13.2308 17.6056 13.826 18.7864 14.025 20.0533C14.1065 20.5719 14.5245 21 15.0495 21Z" fill="black"/>
</svg>
